<svg width="960" height="720" xmlns="http://www.w3.org/2000/svg" xmlns:xlink="http://www.w3.org/1999/xlink" overflow="hidden"><defs><clipPath id="clip0"><rect x="0" y="0" width="960" height="720"/></clipPath></defs><g clip-path="url(#clip0)"><rect x="0" y="0" width="960" height="720" fill="#FFFFFF"/><path d="M654 262.5C654 137.408 755.631 36 881 36 1006.37 36 1108 137.408 1108 262.5 1108 387.592 1006.37 489 881 489 755.631 489 654 387.592 654 262.5Z" fill="#FF7E67" fill-rule="evenodd"/><path d="M-205-363C-205-774.452 123.623-1108 529-1108 934.377-1108 1263-774.452 1263-363 1263 48.452 934.377 382 529 382 123.623 382-205 48.452-205-363Z" fill="#006A71" fill-rule="evenodd"/><path d="M-125-132C-125-257.369-23.3686-359 102-359 227.369-359 329-257.369 329-132 329-6.63141 227.369 95 102 95-23.3686 95-125-6.63141-125-132Z" fill="#68B0AB" fill-rule="evenodd"/></g></svg>