<svg xmlns="http://www.w3.org/2000/svg" xmlns:xlink="http://www.w3.org/1999/xlink" overflow="hidden">
	<defs>
		<clipPath id="clip0">
			<rect x="0" y="0" />
		</clipPath>
	</defs>
	<g clip-path="url(#clip0)">
		<rect x="0" y="0" fill="#FFFFFF" fill-opacity="0"/>
		<path d="M651.652 516.996C543.959 516.397 457.26 445.621 458.005 358.914 458.75 272.207 546.656 202.404 654.349 203.003 654.491 203.004 654.633 203.005 654.775 203.006L654.547 223.18C557.997 222.511 479.036 283.226 478.181 358.789 477.327 434.353 554.903 496.151 651.453 496.82 651.577 496.821 651.701 496.822 651.825 496.822Z" fill="#348D8E" fill-rule="evenodd"/>
		<path d="M671.344 536.262C563.722 556.416 458.414 493.839 436.132 396.492 413.851 299.146 483.033 203.892 590.655 183.738 622.006 177.867 654.459 178.924 685.261 186.82L681.659 198.318C582.264 173.183 479.007 225.194 451.029 314.489 423.051 403.783 480.946 496.547 580.341 521.682 609.104 528.956 639.389 529.93 668.658 524.523Z" fill="#FF7E67" fill-rule="evenodd"/>
		<path d="M647.876 485.607C552.905 480.111 482.015 419.419 489.539 350.049 496.243 288.238 563.517 239.177 648.149 234.378L649.367 245.837C560.708 250.602 494.268 305.578 500.969 368.628 506.959 424.986 569.881 469.803 649.119 474.149Z" fill="#68B0AB" fill-rule="evenodd"/>
	</g>
</svg>
